<svg width="230" height="323" viewBox="0 0 230 323" fill="none" xmlns="http://www.w3.org/2000/svg">
<g clip-path="url(#clip0_1_885)">
<path d="M218.878 15.3669C218.878 15.3669 228.127 30.7823 225.634 38.3882C223.404 45.2001 210.22 44.4913 208.581 51.4738C207.334 57.0191 213.303 65.5766 216.78 69.9538H221.24C225.897 62.5973 229.504 55.6607 230.423 47.0244C235.604 52.4451 237.244 60.996 231.144 69.9538H236.654C241.901 63.6932 252.527 49.6757 250.559 40.626C247.739 27.4157 218.878 15.3669 218.878 15.3669ZM68.215 34.4966C56.7365 34.4966 48.9049 37.7385 44.9366 43.6907C40.9684 49.6429 41.3226 56.1529 41.3226 61.4029V69.2976H53.129V61.4029C53.129 56.1529 53.4832 52.1629 54.7622 50.2401C56.0413 48.3173 58.7043 46.3091 68.215 46.3091H110.194C116.753 46.3091 125.28 54.486 125.28 62.4463V142.535H137.086V123.766H204.842L205.891 111.954H137.086V62.4463C137.086 47.3198 124.624 34.4966 110.194 34.4966H68.215ZM36.7312 80.4538V92.2663H57.7204V80.4538H36.7312ZM220.518 81.7663L211.139 185.454H240.13L230.751 81.7663H220.518ZM47.2258 102.766C40.6666 102.766 34.1862 104.998 29.503 109.132C24.8132 113.332 21.6451 119.304 21.6451 128.36V322.61H72.8064V128.36C72.8064 119.369 69.658 113.332 64.9355 109.132C60.2654 104.998 53.7849 102.766 47.2258 102.766ZM249.182 153.954L250.231 165.766H267.613C277.124 165.766 283.158 168.063 287.028 171.935C290.898 175.873 293.194 182.107 293.194 191.885V218.069C295.03 217.348 296.998 216.954 299.097 216.954C301.196 216.954 303.163 217.348 305 218.069V191.885C305 180.138 302.048 170.36 295.424 163.666C288.799 156.907 279.091 153.954 267.613 153.954H249.182ZM116.097 155.266V164.454H146.269V155.266H116.097ZM131.511 176.266C112.03 176.266 94.9107 185.913 84.6129 200.744V211.704H177.753V199.826C167.389 185.585 150.598 176.266 131.511 176.266ZM189.559 197.266V269.454H261.71V197.266H189.559ZM84.6129 223.516V232.704H177.753V223.516H84.6129ZM299.097 228.766C296.473 228.766 294.505 230.735 294.505 233.36C294.505 235.985 296.473 237.954 299.097 237.954C301.72 237.954 303.688 235.985 303.688 233.36C303.688 230.735 301.72 228.766 299.097 228.766ZM84.6129 244.516V265.91C88.9419 272.144 94.4516 277.46 100.814 281.529L85.9247 311.454V322.61H110.521V311.454H99.1086L111.44 286.844C117.671 289.141 124.427 290.454 131.511 290.454C138.595 290.454 145.351 289.141 151.582 286.844L163.913 311.454H152.5V322.61H194.478V311.454H177.162L162.208 281.529C168.242 277.657 173.555 272.669 177.753 266.894V244.516H84.6129ZM293.194 248.651V269.454H305V248.651C303.163 249.373 301.196 249.766 299.097 249.766C296.998 249.766 295.03 249.373 293.194 248.651ZM216.911 281.266L249.444 322.61H276.337L243.803 281.266H216.911ZM258.889 281.266L291.423 322.61H314.183V316.769L285.782 281.266H258.889ZM300.868 281.266L314.183 297.935V281.266H300.868ZM210.548 292.16V322.61H234.358L210.548 292.16Z" fill="#C0342B"/>
</g>
<defs>
<clipPath id="clip0_1_885">
<rect width="230" height="322" fill="white" transform="translate(0 0.94751)"/>
</clipPath>
</defs>
</svg>
