<svg width="83" height="20" viewBox="0 0 83 20" fill="none" xmlns="http://www.w3.org/2000/svg">
<path d="M21.8213 7.0874L30.2054 7.0874L30.2054 8.62168L26.9042 8.62168L26.9042 17.2707L25.0948 17.2707L25.0948 8.62168L21.8075 8.62168L21.8213 7.0874ZM29.8463 9.89799L31.3932 9.89799L31.3932 11.3237L31.4209 11.3237C31.4761 11.12 31.5728 10.9299 31.7109 10.7398C31.849 10.5497 32.0148 10.3732 32.222 10.2239C32.4153 10.0609 32.6363 9.93872 32.885 9.84368C33.1198 9.74863 33.3684 9.69432 33.617 9.69432C33.8104 9.69432 33.9485 9.7079 34.0176 9.7079C34.0866 9.72148 34.1695 9.73506 34.2386 9.73506L34.2386 11.2965C34.1281 11.2693 34.0038 11.2558 33.8794 11.2422C33.7551 11.2286 33.6446 11.215 33.5203 11.215C33.2441 11.215 32.9816 11.2693 32.733 11.378C32.4844 11.4866 32.2772 11.6495 32.0838 11.8532C31.9043 12.0704 31.7523 12.3284 31.6419 12.6407C31.5314 12.953 31.4761 13.3196 31.4761 13.7269L31.4761 17.23L29.8186 17.23L29.8463 9.89799ZM41.8353 17.2707L40.2055 17.2707L40.2055 16.2388L40.1779 16.2388C39.9707 16.619 39.6668 16.9041 39.2662 17.1349C38.8657 17.3657 38.4513 17.4744 38.0369 17.4744C37.0563 17.4744 36.338 17.2435 35.896 16.7547C35.454 16.2795 35.233 15.5463 35.233 14.5823L35.233 9.89799L36.8905 9.89799L36.8905 14.4194C36.8905 15.0711 37.0148 15.5327 37.2773 15.7907C37.5259 16.0623 37.885 16.1981 38.3408 16.1981C38.6861 16.1981 38.9762 16.1437 39.211 16.0351C39.4458 15.9265 39.6392 15.7907 39.7773 15.6142C39.9292 15.4377 40.0259 15.2205 40.095 14.9761C40.164 14.7317 40.1917 14.4601 40.1917 14.175L40.1917 9.89799L41.8491 9.89799L41.8491 17.2707L41.8353 17.2707ZM44.653 14.9082C44.7083 15.3834 44.8878 15.7093 45.2055 15.9129C45.5232 16.103 45.91 16.1981 46.3519 16.1981C46.5039 16.1981 46.6834 16.1845 46.8768 16.1573C47.0702 16.1302 47.2636 16.0894 47.4293 16.0215C47.6089 15.9537 47.747 15.8586 47.8575 15.7228C47.968 15.5871 48.0232 15.4241 48.0094 15.2205C47.9956 15.0168 47.9266 14.8403 47.7746 14.7045C47.6227 14.5687 47.4431 14.4737 47.2221 14.3786C47.0011 14.2972 46.7387 14.2293 46.4486 14.175C46.1586 14.1207 45.8685 14.0528 45.5646 13.9849C45.2608 13.917 44.9569 13.8355 44.6668 13.7405C44.3768 13.6454 44.1282 13.5232 43.8934 13.3467C43.6724 13.1838 43.479 12.9801 43.3547 12.7222C43.2166 12.4642 43.1475 12.1655 43.1475 11.7853C43.1475 11.378 43.2442 11.0521 43.4514 10.7805C43.6447 10.509 43.9072 10.2917 44.211 10.1288C44.5149 9.96588 44.8602 9.84368 45.2332 9.77579C45.6061 9.7079 45.9652 9.68074 46.2967 9.68074C46.6834 9.68074 47.0564 9.72148 47.4017 9.80294C47.747 9.88441 48.0785 10.0066 48.3547 10.1967C48.6448 10.3732 48.8796 10.6176 49.0592 10.9027C49.2525 11.1879 49.363 11.5409 49.4183 11.9482L47.6917 11.9482C47.6089 11.5545 47.4293 11.2965 47.1531 11.1607C46.863 11.0249 46.5453 10.9571 46.1724 10.9571C46.0619 10.9571 45.91 10.9706 45.758 10.9842C45.5923 11.0114 45.4541 11.0385 45.3022 11.0928C45.1641 11.1471 45.0398 11.2286 44.9431 11.3236C44.8464 11.4187 44.7912 11.5545 44.7912 11.7174C44.7912 11.9211 44.8602 12.0704 44.9983 12.1926C45.1365 12.3148 45.316 12.4099 45.5508 12.5049C45.7718 12.5864 46.0343 12.6543 46.3243 12.7086C46.6144 12.7629 46.9183 12.8308 47.2221 12.8987C47.526 12.9666 47.8161 13.048 48.1061 13.1431C48.3962 13.2381 48.6586 13.3603 48.8796 13.5368C49.1006 13.6998 49.294 13.9034 49.4321 14.1478C49.5702 14.3922 49.6393 14.7045 49.6393 15.0575C49.6393 15.492 49.5426 15.8586 49.3354 16.1709C49.1282 16.4696 48.8658 16.7276 48.5481 16.9177C48.2304 17.1078 47.8575 17.2435 47.4707 17.3386C47.0702 17.4201 46.6834 17.4744 46.2967 17.4744C45.8271 17.4744 45.3851 17.4201 44.9845 17.3114C44.584 17.2028 44.2249 17.0399 43.9348 16.8362C43.6447 16.619 43.4099 16.361 43.2442 16.0351C43.0784 15.7228 42.9817 15.3427 42.9679 14.8946L44.6392 14.8946L44.6392 14.9082L44.653 14.9082ZM50.1089 9.89799L51.3658 9.89799L51.3658 7.67124L53.0233 7.67124L53.0233 9.88441L54.515 9.88441L54.515 11.0928L53.0233 11.0928L53.0233 15.0304C53.0233 15.2069 53.0371 15.3427 53.0509 15.4784C53.0647 15.6006 53.1062 15.7093 53.1476 15.7907C53.2028 15.8722 53.2857 15.9401 53.3824 15.9808C53.4929 16.0215 53.631 16.0487 53.8244 16.0487C53.9349 16.0487 54.0592 16.0487 54.1697 16.0351C54.2802 16.0215 54.4045 16.008 54.515 15.9808L54.515 17.2435C54.3355 17.2707 54.1559 17.2843 53.9763 17.2979C53.7968 17.325 53.631 17.325 53.4377 17.325C52.9957 17.325 52.6504 17.2843 52.3879 17.2028C52.1255 17.1213 51.9183 16.9991 51.7664 16.8498C51.6144 16.6869 51.5177 16.4968 51.4625 16.2659C51.4072 16.0351 51.3796 15.75 51.3658 15.4513L51.3658 11.1064L50.1089 11.1064L50.1089 9.87083L50.1089 9.89799ZM55.6752 9.89799L57.236 9.89799L57.236 10.9027L57.2637 10.9027C57.4985 10.4682 57.8162 10.1695 58.2305 9.97945C58.6449 9.78936 59.0869 9.69432 59.5841 9.69432C60.1781 9.69432 60.6891 9.78936 61.1311 10.0066C61.5731 10.2103 61.9322 10.4818 62.2223 10.8484C62.5123 11.2014 62.7333 11.6224 62.8715 12.0976C63.0096 12.5728 63.0925 13.0888 63.0925 13.6183C63.0925 14.1207 63.0234 14.5959 62.8991 15.0575C62.761 15.5192 62.5676 15.9401 62.3052 16.2931C62.0427 16.6461 61.7112 16.9313 61.2969 17.1485C60.8825 17.3657 60.4129 17.4744 59.8604 17.4744C59.6256 17.4744 59.3769 17.4472 59.1421 17.4065C58.9073 17.3657 58.6725 17.2979 58.4515 17.2028C58.2305 17.1078 58.0233 16.9856 57.8438 16.8362C57.6504 16.6869 57.4985 16.5103 57.3742 16.3203L57.3465 16.3203L57.3465 19.9998L55.6891 19.9998L55.6891 9.89799L55.6752 9.89799ZM61.4626 13.5911C61.4626 13.2653 61.4212 12.9394 61.3245 12.6271C61.2416 12.3148 61.1035 12.0433 60.9239 11.7989C60.7444 11.5545 60.5234 11.3644 60.2747 11.215C60.0123 11.0657 59.7084 10.9978 59.3769 10.9978C58.6863 10.9978 58.1615 11.2286 57.8023 11.7038C57.457 12.179 57.2775 12.8172 57.2775 13.6047C57.2775 13.9849 57.3189 14.3243 57.4156 14.6366C57.5123 14.9489 57.6366 15.2205 57.83 15.4513C58.0095 15.6821 58.2305 15.8586 58.493 15.9944C58.7554 16.1302 59.0455 16.1981 59.3908 16.1981C59.7775 16.1981 60.0814 16.1166 60.3438 15.9672C60.6062 15.8179 60.8134 15.6142 60.993 15.3834C61.1587 15.139 61.283 14.8674 61.3521 14.5551C61.4212 14.2293 61.4626 13.917 61.4626 13.5911ZM64.377 7.08739L66.0345 7.08739L66.0345 8.62168L64.377 8.62168L64.377 7.08739ZM64.377 9.89798L66.0345 9.89798L66.0345 17.2707L64.377 17.2707L64.377 9.89798ZM67.5124 7.08739L69.1699 7.08739L69.1699 17.2707L67.5124 17.2707L67.5124 7.08739ZM74.2252 17.4744C73.6312 17.4744 73.0926 17.3793 72.6229 17.1756C72.1533 16.972 71.7666 16.714 71.4351 16.3746C71.1174 16.0351 70.8688 15.6142 70.703 15.139C70.5373 14.6638 70.4406 14.1342 70.4406 13.5775C70.4406 13.0209 70.5235 12.5049 70.703 12.0297C70.8688 11.5545 71.1174 11.1471 71.4351 10.7941C71.7528 10.4547 72.1533 10.1831 72.6229 9.99303C73.0926 9.80294 73.6312 9.69432 74.2252 9.69432C74.8191 9.69432 75.3578 9.78936 75.8274 9.99303C76.297 10.1831 76.6838 10.4547 77.0152 10.7941C77.3329 11.1336 77.5815 11.5545 77.7473 12.0297C77.913 12.5049 78.0097 13.0209 78.0097 13.5775C78.0097 14.1478 77.9269 14.6638 77.7473 15.139C77.5677 15.6142 77.3329 16.0215 77.0152 16.3746C76.6976 16.714 76.297 16.9856 75.8274 17.1756C75.3578 17.3657 74.8329 17.4744 74.2252 17.4744ZM74.2252 16.1845C74.5843 16.1845 74.9158 16.103 75.1782 15.9537C75.4545 15.8043 75.6616 15.6006 75.8412 15.3562C76.0208 15.1118 76.1451 14.8267 76.2279 14.528C76.3108 14.2157 76.3523 13.9034 76.3523 13.5775C76.3523 13.2653 76.3108 12.953 76.2279 12.6407C76.1451 12.3284 76.0208 12.0568 75.8412 11.8124C75.6616 11.568 75.4406 11.378 75.1782 11.2286C74.902 11.0792 74.5843 10.9978 74.2252 10.9978C73.866 10.9978 73.5346 11.0792 73.2721 11.2286C72.9959 11.378 72.7887 11.5816 72.6091 11.8124C72.4296 12.0568 72.3053 12.3284 72.2224 12.6407C72.1395 12.953 72.0981 13.2653 72.0981 13.5775C72.0981 13.9034 72.1395 14.2157 72.2224 14.528C72.3053 14.8403 72.4296 15.1118 72.6091 15.3562C72.7887 15.6006 73.0097 15.8043 73.2721 15.9537C73.5484 16.1166 73.866 16.1845 74.2252 16.1845ZM78.507 9.89798L79.7639 9.89798L79.7639 7.67123L81.4214 7.67123L81.4214 9.8844L82.9131 9.8844L82.9131 11.0928L81.4214 11.0928L81.4214 15.0304C81.4214 15.2069 81.4352 15.3427 81.449 15.4784C81.4628 15.6006 81.5042 15.7093 81.5457 15.7907C81.6009 15.8722 81.6838 15.9401 81.7805 15.9808C81.891 16.0215 82.0291 16.0487 82.2225 16.0487C82.333 16.0487 82.4573 16.0487 82.5678 16.0351C82.6783 16.0215 82.8026 16.008 82.9131 15.9808L82.9131 17.2435C82.7335 17.2707 82.554 17.2843 82.3744 17.2978C82.1949 17.325 82.0291 17.325 81.8357 17.325C81.3938 17.325 81.0484 17.2843 80.786 17.2028C80.5236 17.1213 80.3164 16.9991 80.1644 16.8498C80.0125 16.6868 79.9158 16.4968 79.8606 16.2659C79.8053 16.0351 79.7777 15.75 79.7639 15.4513L79.7639 11.1064L78.507 11.1064L78.507 9.87083L78.507 9.89798Z" fill="white"/>
<path d="M14.2794 13.0616L13.7545 11.4595L9.96973 14.1614L14.2794 13.0616Z" fill="#005128"/>
<path d="M19.8872 7.08758L12.3042 7.08758L9.96996 -1.72776e-06L7.62188 7.08758L0.0389417 7.074L6.17159 11.4596L3.8235 18.5472L9.95615 14.1616L16.0888 18.5472L13.7545 11.4596L19.8872 7.08758Z" fill="#00B67A"/>
</svg>
