<svg width="64" height="64" viewBox="0 0 64 64" fill="none" xmlns="http://www.w3.org/2000/svg">
<circle cx="32" cy="32" r="31.5" fill="white" stroke="#E1A535"/>
<circle cx="32" cy="32" r="28" fill="#E1A535"/>
<path d="M40 51C40 49.741 40.5928 48.5554 41.6 47.8L49.6 41.8C51.0222 40.7333 52.9778 40.7333 54.4 41.8L62.4 47.8C63.4072 48.5554 64 49.741 64 51V64H40V51Z" fill="#C0342B"/>
<path d="M50.6666 55.3334C50.3933 55.3334 50.1666 55.56 50.1666 55.8334V56.8334C50.1666 57.1067 50.3933 57.3334 50.6666 57.3334C50.94 57.3334 51.1666 57.1067 51.1666 56.8334V55.8334C51.1666 55.56 50.94 55.3334 50.6666 55.3334Z" fill="white"/>
<path d="M58.6667 59.1667H58V51.6534C58 51.24 57.8134 50.8534 57.4867 50.6L52.82 46.9734C52.34 46.5934 51.66 46.5934 51.18 46.9734L46.5134 50.6C46.1867 50.8534 46 51.24 46 51.6467L45.9667 59.1667H45.3334C45.06 59.1667 44.8334 59.3867 44.8334 59.6667C44.8334 59.94 45.06 60.1667 45.3334 60.1667H58.6667C58.94 60.1667 59.1667 59.94 59.1667 59.6667C59.1667 59.3867 58.94 59.1667 58.6667 59.1667ZM51 49.5H53C53.2734 49.5 53.5 49.7267 53.5 50C53.5 50.2734 53.2734 50.5 53 50.5H51C50.7267 50.5 50.5 50.2734 50.5 50C50.5 49.7267 50.7267 49.5 51 49.5ZM55.3334 59.1667H48.6667V53.3334C48.6667 52.78 49.1134 52.3334 49.6667 52.3334H54.3334C54.8867 52.3334 55.3334 52.78 55.3334 53.3334V59.1667Z" fill="white"/>
<path d="M38.4666 35.4001H41.2666L47.6666 29.0001H21.2666C20.7473 29.0001 20.2421 29.1685 19.8266 29.4801L15.6666 32.6001L20.6882 35.1417C21.0238 35.3115 21.3946 35.4 21.7706 35.4001H22.8666" stroke="white" stroke-width="2" stroke-linecap="round" stroke-linejoin="round"/>
<path d="M34.0666 36.2C34.0666 37.5256 31.201 38.6 27.6666 38.6V33.8C31.201 33.8 34.0666 34.8744 34.0666 36.2Z" stroke="white" stroke-width="2" stroke-linejoin="round"/>
<path d="M37.2667 25.8L30.0667 29H42.0667L44.4667 21H42.0667L37.2667 25.8Z" stroke="white" stroke-width="2" stroke-linecap="round" stroke-linejoin="round"/>
</svg>
