<svg width="64" height="64" viewBox="0 0 64 64" fill="none" xmlns="http://www.w3.org/2000/svg">
<circle cx="32" cy="32" r="31.5" fill="white" stroke="#E1A535"/>
<circle cx="32" cy="32" r="28" fill="#E1A535"/>
<path d="M32 27.9475C27.864 27.9475 26.368 31.4182 25.52 34.9302C24.4426 39.3862 28.2346 41.4062 32 41.2755C35.7653 41.4062 39.5573 39.3862 38.48 34.9302C37.6333 31.4182 36.1373 27.9475 32 27.9475ZM32 27.9475V19.9475M32 34.6142H32.012M21.3333 43.9475H21.3453M42.6666 43.9475H42.6786M25.3333 35.9475L18.6666 38.6142M38.6666 35.9475L45.3333 38.6142M21.3333 39.9475V37.9475M42.6666 39.9475V37.9475" stroke="white" stroke-width="4" stroke-linecap="round" stroke-linejoin="round"/>
<path d="M40 40H64V52C64 58.6274 58.6274 64 52 64C45.3726 64 40 58.6274 40 52V40Z" fill="#C0342B"/>
<path d="M56.36 46.78L52.6934 45.4066C52.3134 45.2666 51.6934 45.2666 51.3134 45.4066L47.6467 46.78C46.94 47.0466 46.3667 47.8733 46.3667 48.6266V54.0266C46.3667 54.5666 46.72 55.28 47.1534 55.6L50.82 58.34C51.4667 58.8266 52.5267 58.8266 53.1734 58.34L56.84 55.6C57.2734 55.2733 57.6267 54.5666 57.6267 54.0266V48.6266C57.6334 47.8733 57.06 47.0466 56.36 46.78ZM52.5 52.58V54.3333C52.5 54.6066 52.2734 54.8333 52 54.8333C51.7267 54.8333 51.5 54.6066 51.5 54.3333V52.58C50.8267 52.3666 50.3334 51.74 50.3334 51C50.3334 50.08 51.08 49.3333 52 49.3333C52.92 49.3333 53.6667 50.08 53.6667 51C53.6667 51.7466 53.1734 52.3666 52.5 52.58Z" fill="white"/>
</svg>
