<svg width="96" height="64" viewBox="0 0 96 64" fill="none" xmlns="http://www.w3.org/2000/svg">
<circle cx="32" cy="32" r="31.5" fill="white" stroke="#E1A535"/>
<circle cx="32" cy="32" r="28" fill="#E1A535"/>
<rect x="40" y="40" width="24" height="24" rx="12" fill="#C0342B"/>
<path d="M51.5 49.3867V51.2934L50.8267 51.0601C50.4867 50.9401 50.28 50.8267 50.28 50.2467C50.28 49.7734 50.6334 49.3867 51.0667 49.3867H51.5Z" fill="white"/>
<path d="M53.72 53.7533C53.72 54.2267 53.3667 54.6133 52.9333 54.6133H52.5V52.7067L53.1733 52.94C53.5133 53.06 53.72 53.1733 53.72 53.7533Z" fill="white"/>
<path d="M54.7934 45.3334H49.2067C46.78 45.3334 45.3334 46.78 45.3334 49.2067V54.7934C45.3334 57.22 46.78 58.6667 49.2067 58.6667H54.7934C57.22 58.6667 58.6667 57.22 58.6667 54.7934V49.2067C58.6667 46.78 57.22 45.3334 54.7934 45.3334ZM53.5067 52C54.0267 52.18 54.72 52.56 54.72 53.7534C54.72 54.78 53.92 55.6134 52.9334 55.6134H52.5V56C52.5 56.2734 52.2734 56.5 52 56.5C51.7267 56.5 51.5 56.2734 51.5 56V55.6134H51.26C50.1667 55.6134 49.28 54.6867 49.28 53.5534C49.28 53.28 49.5 53.0534 49.78 53.0534C50.0534 53.0534 50.28 53.28 50.28 53.5534C50.28 54.14 50.72 54.6134 51.26 54.6134H51.5V52.3534L50.4934 52C49.9734 51.82 49.28 51.44 49.28 50.2467C49.28 49.22 50.08 48.3867 51.0667 48.3867H51.5V48C51.5 47.7267 51.7267 47.5 52 47.5C52.2734 47.5 52.5 47.7267 52.5 48V48.3867H52.74C53.8334 48.3867 54.72 49.3134 54.72 50.4467C54.72 50.72 54.5 50.9467 54.22 50.9467C53.9467 50.9467 53.72 50.72 53.72 50.4467C53.72 49.86 53.28 49.3867 52.74 49.3867H52.5V51.6467L53.5067 52Z" fill="white"/>
<path d="M42 40C43.1046 40 44 39.1046 44 38C44 36.8954 43.1046 36 42 36C40.8954 36 40 36.8954 40 38C40 39.1046 40.8954 40 42 40Z" fill="white"/>
<path d="M36 40C37.1046 40 38 39.1046 38 38C38 36.8954 37.1046 36 36 36C34.8954 36 34 36.8954 34 38C34 39.1046 34.8954 40 36 40Z" fill="white"/>
<path d="M30 24C31.1046 24 32 23.1046 32 22C32 20.8954 31.1046 20 30 20C28.8954 20 28 20.8954 28 22C28 23.1046 28.8954 24 30 24Z" fill="white"/>
<path d="M24 24C25.1046 24 26 23.1046 26 22C26 20.8954 25.1046 20 24 20C22.8954 20 22 20.8954 22 22C22 23.1046 22.8954 24 24 24Z" fill="white"/>
<path d="M24.234 40C26.1233 40.0015 27.965 39.4077 29.4977 38.303C31.0303 37.1983 32.176 35.6388 32.772 33.846L35.125 26.786C35.5884 25.3914 36.4794 24.1784 37.6716 23.3192C38.8638 22.46 40.2965 21.9984 41.766 22H46V20H41.766C39.8767 19.9985 38.035 20.5923 36.5023 21.697C34.9697 22.8017 33.824 24.3612 33.228 26.154L30.875 33.214C30.4116 34.6086 29.5206 35.8216 28.3284 36.6808C27.1362 37.54 25.7035 38.0016 24.234 38H20V18H18V44C18 45.103 18.897 46 20 46H46V44H20V40H24.234Z" fill="white"/>
</svg>
