<svg width="64" height="64" viewBox="0 0 64 64" fill="none" xmlns="http://www.w3.org/2000/svg">
<circle cx="32" cy="32" r="31.5" fill="white" stroke="#E1A535"/>
<circle cx="32" cy="32" r="28" fill="#E1A535"/>
<rect x="40" y="40" width="24" height="24" rx="12" fill="#C0342B"/>
<path d="M52.0007 45.3335C48.3207 45.3335 45.334 48.3202 45.334 52.0002C45.334 55.6802 48.3207 58.6668 52.0007 58.6668C55.6807 58.6668 58.6673 55.6802 58.6673 52.0002C58.6673 48.3202 55.6807 45.3335 52.0007 45.3335ZM49.8207 49.1068C50.3607 49.1068 50.8073 49.5468 50.8073 50.0935C50.8073 50.6335 50.3673 51.0802 49.8207 51.0802C49.2807 51.0802 48.834 50.6402 48.834 50.0935C48.834 49.5468 49.274 49.1068 49.8207 49.1068ZM49.9007 54.5335C49.8007 54.6335 49.674 54.6802 49.5473 54.6802C49.4207 54.6802 49.294 54.6335 49.194 54.5335C49.0007 54.3402 49.0007 54.0202 49.194 53.8268L53.5607 49.4602C53.754 49.2668 54.074 49.2668 54.2673 49.4602C54.4607 49.6535 54.4607 49.9735 54.2673 50.1668L49.9007 54.5335ZM54.1807 54.8935C53.6407 54.8935 53.194 54.4535 53.194 53.9068C53.194 53.3668 53.634 52.9202 54.1807 52.9202C54.7207 52.9202 55.1673 53.3602 55.1673 53.9068C55.1673 54.4535 54.7273 54.8935 54.1807 54.8935Z" fill="white"/>
<path d="M23.252 37.5942C23.252 37.2448 23.2414 36.9106 23.22 36.5915M23.22 36.5915C23.0307 33.6955 22.04 32.0582 21.2334 31.2422C19.8387 32.6528 16.62 38.3008 20.556 42.5355L26.916 39.7128C27.0432 40.2275 27.1978 40.7377 27.38 41.2435C27.7947 42.3982 28.0027 42.9768 28.6934 43.4622C29.3827 43.9475 30.1454 43.9475 31.6694 43.9475H32.3307C33.8547 43.9475 34.6174 43.9475 35.3067 43.4622C35.996 42.9768 36.2054 42.3995 36.62 41.2435C36.8014 40.7368 36.956 40.2262 37.084 39.7115L43.444 42.5355C47.3814 38.3008 44.1614 32.6528 42.768 31.2422C41.96 32.0595 40.968 33.6955 40.7814 36.5915M23.22 36.5915L24.684 36.0382C25.496 35.7315 25.9014 35.5782 26.1334 35.2715C26.3654 34.9648 26.4067 34.4915 26.4894 33.5462C27.008 27.5902 29.9014 22.1075 32 19.9475C34.0987 22.1075 36.992 27.5902 37.5107 33.5462C37.5934 34.4928 37.6347 34.9648 37.8667 35.2715C38.0987 35.5782 38.504 35.7315 39.316 36.0382L40.78 36.5915C40.7587 36.9106 40.748 37.2448 40.748 37.5942M32 29.2808V30.6142M42.6667 26.6142V25.2808M42.6667 21.2808V19.9475M21.3334 26.6142V25.2808M21.3334 21.2808V19.9475" stroke="white" stroke-width="1.5" stroke-linecap="round" stroke-linejoin="round"/>
</svg>
