<svg width="90" height="90" viewBox="0 0 90 90" fill="none" xmlns="http://www.w3.org/2000/svg">
<path d="M68.9062 67.5H80.1562V45H68.9062V67.5ZM74.5312 49.2188V56.25H78.75L74.5312 63.2812V56.25H70.3125L74.5312 49.2188Z" fill="white"/>
<path d="M75.9375 77.3438H73.125V80.1562H75.9375V77.3438Z" fill="white"/>
<path d="M82.9688 40.7812H66.0938C65.7208 40.7812 65.3631 40.9294 65.0994 41.1931C64.8357 41.4569 64.6875 41.8145 64.6875 42.1875V73.125C64.6875 73.498 64.8357 73.8556 65.0994 74.1194C65.3631 74.3831 65.7208 74.5312 66.0938 74.5312H82.9688C83.3417 74.5312 83.6994 74.3831 83.9631 74.1194C84.2268 73.8556 84.375 73.498 84.375 73.125V42.1875C84.375 41.8145 84.2268 41.4569 83.9631 41.1931C83.6994 40.9294 83.3417 40.7812 82.9688 40.7812ZM82.9688 68.9062C82.9688 69.2792 82.8206 69.6369 82.5569 69.9006C82.2931 70.1643 81.9355 70.3125 81.5625 70.3125H67.5C67.127 70.3125 66.7694 70.1643 66.5056 69.9006C66.2419 69.6369 66.0938 69.2792 66.0938 68.9062V43.5938C66.0938 43.2208 66.2419 42.8631 66.5056 42.5994C66.7694 42.3357 67.127 42.1875 67.5 42.1875H81.5625C81.9355 42.1875 82.2931 42.3357 82.5569 42.5994C82.8206 42.8631 82.9688 43.2208 82.9688 43.5938V68.9062ZM36.5625 59.0625V42.1875C36.5625 41.8145 36.4143 41.4569 36.1506 41.1931C35.8869 40.9294 35.5292 40.7812 35.1562 40.7812H7.03125C6.65829 40.7812 6.3006 40.9294 6.03688 41.1931C5.77316 41.4569 5.625 41.8145 5.625 42.1875V59.0625C5.625 59.4355 5.77316 59.7931 6.03688 60.0569C6.3006 60.3206 6.65829 60.4688 7.03125 60.4688H35.1562C35.5292 60.4688 35.8869 60.3206 36.1506 60.0569C36.4143 59.7931 36.5625 59.4355 36.5625 59.0625ZM21.0938 57.6562V50.625H16.875L21.0938 43.5938V50.625H25.3125L21.0938 57.6562Z" fill="white"/>
<path d="M22.5 63.2812H19.6875V64.6875H22.5V63.2812Z" fill="white"/>
<path d="M58.0922 15.4688H71.9016L71.2969 11.25H57.5859L58.0922 15.4688Z" fill="white"/>
<path d="M54.7593 11.25H35.2406L34.7484 15.4688H55.2515L54.7593 11.25Z" fill="white"/>
<path d="M58.9078 22.5H72.9141L72.3094 18.2812H58.4156L58.9078 22.5Z" fill="white"/>
<path d="M70.9031 8.4375L70.4953 5.625H56.9391L57.2625 8.4375H70.9031Z" fill="white"/>
<path d="M54.0985 5.625H35.9016L35.5641 8.4375H54.436L54.0985 5.625Z" fill="white"/>
<path d="M31.5844 18.2812H17.6906L17.0859 22.5H31.0922L31.5844 18.2812Z" fill="white"/>
<path d="M32.414 11.25H18.7031L18.0984 15.4688H31.9078L32.414 11.25Z" fill="white"/>
<path d="M33.061 5.625H19.5047L19.0969 8.4375H32.7376L33.061 5.625Z" fill="white"/>
<path d="M55.589 18.2812H34.4109L33.9187 22.5H56.0812L55.589 18.2812Z" fill="white"/>
<path d="M47.8125 25.3125H42.1875V28.125H47.8125V25.3125Z" fill="white"/>
<path d="M60.4688 77.3438L54.8438 73.125V75.9375H52.0312V67.5H49.2188V77.3438C49.2188 77.7167 49.3669 78.0744 49.6306 78.3381C49.8944 78.6018 50.252 78.75 50.625 78.75H54.8438V81.5625L60.4688 77.3438ZM29.5312 77.3438L35.1562 81.5625V78.75H39.375C39.748 78.75 40.1056 78.6018 40.3694 78.3381C40.6331 78.0744 40.7812 77.7167 40.7812 77.3438V67.5H37.9688V75.9375H35.1562V73.125L29.5312 77.3438Z" fill="white"/>
<path d="M28.125 66.0938H14.0625V68.9062H28.125V66.0938Z" fill="white"/>
<path d="M73.125 84.375H46.4062V29.5312H43.5938V84.375H22.5V70.3125H19.6875V85.7812C19.6875 86.1542 19.8357 86.5119 20.0994 86.7756C20.3631 87.0393 20.7208 87.1875 21.0938 87.1875H74.5312C74.9042 87.1875 75.2619 87.0393 75.5256 86.7756C75.7893 86.5119 75.9375 86.1542 75.9375 85.7812V81.5625H73.125V84.375Z" fill="white"/>
</svg>
