<svg width="20" height="20" viewBox="0 0 20 20" fill="none" xmlns="http://www.w3.org/2000/svg">
<path d="M14.9321 11.9334C14.7163 12.1426 14.6171 12.4451 14.6663 12.7417L15.4071 16.8417C15.4696 17.1892 15.3229 17.5409 15.0321 17.7417C14.7471 17.9501 14.3679 17.9751 14.0571 17.8084L10.3663 15.8834C10.2379 15.8151 10.0954 15.7784 9.94961 15.7742H9.72378C9.64544 15.7859 9.56878 15.8109 9.49878 15.8492L5.80711 17.7834C5.62461 17.8751 5.41794 17.9076 5.21545 17.8751C4.72211 17.7817 4.39294 17.3117 4.47378 16.8159L5.21545 12.7159C5.26461 12.4167 5.16544 12.1126 4.94961 11.9001L1.94045 8.9834C1.68878 8.73924 1.60128 8.37257 1.71628 8.04174C1.82795 7.71174 2.11294 7.4709 2.45711 7.41674L6.59878 6.8159C6.91378 6.7834 7.19044 6.59174 7.33211 6.3084L9.15711 2.56674C9.20044 2.4834 9.25628 2.40674 9.32378 2.34174L9.39878 2.2834C9.43794 2.24007 9.48294 2.20424 9.53294 2.17507L9.62378 2.14174L9.76544 2.0834H10.1163C10.4296 2.1159 10.7054 2.3034 10.8496 2.5834L12.6988 6.3084C12.8321 6.5809 13.0913 6.77007 13.3904 6.8159L17.5321 7.41674C17.8821 7.46674 18.1746 7.7084 18.2904 8.04174C18.3996 8.3759 18.3054 8.74257 18.0488 8.9834L14.9321 11.9334Z" fill="#FFB154"/>
</svg>
