<svg width="64" height="65" viewBox="0 0 64 65" fill="none" xmlns="http://www.w3.org/2000/svg">
<circle cx="32" cy="32.5105" r="32" fill="#C0342B"/>
<path d="M27.9998 45.8438H35.9998C42.6665 45.8438 45.3332 43.1771 45.3332 36.5105V28.5105C45.3332 21.8438 42.6665 19.1771 35.9998 19.1771H27.9998C21.3332 19.1771 18.6665 21.8438 18.6665 28.5105V36.5105C18.6665 43.1771 21.3332 45.8438 27.9998 45.8438Z" stroke="white" stroke-width="3" stroke-linecap="round" stroke-linejoin="round"/>
<path d="M28.1333 32.5103V30.537C28.1333 27.9903 29.9333 26.9637 32.1333 28.2303L33.84 29.217L35.5466 30.2037C37.7466 31.4703 37.7466 33.5503 35.5466 34.817L33.84 35.8037L32.1333 36.7903C29.9333 38.057 28.1333 37.017 28.1333 34.4837V32.5103Z" stroke="white" stroke-width="3" stroke-miterlimit="10" stroke-linecap="round" stroke-linejoin="round"/>
</svg>
